<svg width="1200" height="800" xmlns="http://www.w3.org/2000/svg">
  <!-- Arpeggiator Panel Mockup -->
  <defs>
    <radialGradient id="discGrad" cx="35%" cy="35%">
      <stop offset="0%" stop-color="#1C1C36"/>
      <stop offset="100%" stop-color="#16162A"/>
    </radialGradient>
  </defs>
  
  <!-- Background -->
  <rect width="1200" height="800" fill="#0A0A12"/>
  
  <!-- Tab bar -->
  <rect width="1200" height="32" fill="#0D0D1A"/>
  <line x1="0" y1="32" x2="1200" y2="32" stroke="#25253D" stroke-width="1" opacity="0.4"/>
  <rect x="600" y="0" width="100" height="32" fill="#00F0FF" opacity="0.13"/>
  <line x1="600" y1="30" x2="700" y2="30" stroke="#00F0FF" stroke-width="2"/>
  <text x="650" y="20" font-family="Inter, sans-serif" font-size="11" fill="#00F0FF" text-anchor="middle">Arp</text>
  
  <!-- Card1: Controls -->
  <rect x="19" y="51" width="1162" height="120" rx="8" fill="#25253D" opacity="0.45"/>
  <rect x="16" y="48" width="1162" height="120" rx="8" fill="#050510" opacity="0.65"/>
  <rect x="16" y="48" width="1162" height="120" rx="8" fill="#1A1A2E"/>
  <text x="24" y="61" font-family="Inter, sans-serif" font-size="10" font-weight="bold" fill="#8888AA">CONTROLS</text>
  
  <!-- Control knobs -->
  <circle cx="120" cy="110" r="25" fill="url(#discGrad)"/>
  <circle cx="120" cy="110" r="25" fill="#25253D" opacity="0.55"/>
  <circle cx="120" cy="110" r="25" fill="#050510" opacity="0.70"/>
  <text x="120" y="142" font-family="Inter, sans-serif" font-size="9" fill="#8888AA" text-anchor="middle">Rate</text>
  
  <circle cx="220" cy="110" r="25" fill="url(#discGrad)"/>
  <circle cx="220" cy="110" r="25" fill="#25253D" opacity="0.55"/>
  <circle cx="220" cy="110" r="25" fill="#050510" opacity="0.70"/>
  <text x="220" y="142" font-family="Inter, sans-serif" font-size="9" fill="#8888AA" text-anchor="middle">Gate</text>
  
  <!-- Card2: Step grid (2 rows × 16) -->
  <rect x="19" y="187" width="1162" height="300" rx="8" fill="#25253D" opacity="0.45"/>
  <rect x="16" y="184" width="1162" height="300" rx="8" fill="#050510" opacity="0.65"/>
  <rect x="16" y="184" width="1162" height="300" rx="8" fill="#1A1A2E"/>
  <text x="24" y="197" font-family="Inter, sans-serif" font-size="10" font-weight="bold" fill="#8888AA">STEP GRID (2 ROWS × 16)</text>
  
  <!-- Row 1 -->
  <rect x="20" y="215" width="70" height="120" rx="4" fill="#12121F"/>
  <rect x="95" y="215" width="70" height="120" rx="4" fill="#12121F"/>
  <rect x="170" y="215" width="70" height="120" rx="4" fill="#12121F"/>
  <rect x="245" y="215" width="70" height="120" rx="4" fill="#12121F"/>
  <rect x="320" y="215" width="70" height="120" rx="4" fill="#12121F"/>
  <rect x="395" y="215" width="70" height="120" rx="4" fill="#12121F"/>
  <rect x="470" y="215" width="70" height="120" rx="4" fill="#12121F"/>
  <rect x="545" y="215" width="70" height="120" rx="4" fill="#12121F"/>
  <rect x="620" y="215" width="70" height="120" rx="4" fill="#12121F"/>
  <rect x="695" y="215" width="70" height="120" rx="4" fill="#12121F"/>
  <rect x="770" y="215" width="70" height="120" rx="4" fill="#12121F"/>
  <rect x="845" y="215" width="70" height="120" rx="4" fill="#12121F"/>
  <rect x="920" y="215" width="70" height="120" rx="4" fill="#12121F"/>
  <rect x="995" y="215" width="70" height="120" rx="4" fill="#12121F"/>
  <rect x="1070" y="215" width="70" height="120" rx="4" fill="#12121F"/>
  <rect x="1145" y="215" width="70" height="120" rx="4" fill="#12121F"/>
  
  <!-- Row 2 -->
  <rect x="20" y="345" width="70" height="120" rx="4" fill="#12121F"/>
  <rect x="95" y="345" width="70" height="120" rx="4" fill="#12121F"/>
  <rect x="170" y="345" width="70" height="120" rx="4" fill="#12121F"/>
  <rect x="245" y="345" width="70" height="120" rx="4" fill="#12121F"/>
  <rect x="320" y="345" width="70" height="120" rx="4" fill="#12121F"/>
  <rect x="395" y="345" width="70" height="120" rx="4" fill="#12121F"/>
  <rect x="470" y="345" width="70" height="120" rx="4" fill="#12121F"/>
  <rect x="545" y="345" width="70" height="120" rx="4" fill="#12121F"/>
  <rect x="620" y="345" width="70" height="120" rx="4" fill="#12121F"/>
  <rect x="695" y="345" width="70" height="120" rx="4" fill="#12121F"/>
  <rect x="770" y="345" width="70" height="120" rx="4" fill="#12121F"/>
  <rect x="845" y="345" width="70" height="120" rx="4" fill="#12121F"/>
  <rect x="920" y="345" width="70" height="120" rx="4" fill="#12121F"/>
  <rect x="995" y="345" width="70" height="120" rx="4" fill="#12121F"/>
  <rect x="1070" y="345" width="70" height="120" rx="4" fill="#12121F"/>
  <rect x="1145" y="345" width="70" height="120" rx="4" fill="#12121F"/>
  
  <!-- Card3: Step editor -->
  <rect x="19" y="505" width="1162" height="256" rx="8" fill="#25253D" opacity="0.45"/>
  <rect x="16" y="502" width="1162" height="256" rx="8" fill="#050510" opacity="0.65"/>
  <rect x="16" y="502" width="1162" height="256" rx="8" fill="#1A1A2E"/>
  <text x="24" y="515" font-family="Inter, sans-serif" font-size="10" font-weight="bold" fill="#8888AA">STEP EDITOR</text>
</svg>