<svg width="1200" height="800" xmlns="http://www.w3.org/2000/svg">
  <!-- Modulation Matrix Panel Mockup -->
  
  <!-- Background -->
  <rect width="1200" height="800" fill="#0A0A12"/>
  
  <!-- Tab bar -->
  <rect width="1200" height="32" fill="#0D0D1A"/>
  <line x1="0" y1="32" x2="1200" y2="32" stroke="#25253D" stroke-width="1" opacity="0.4"/>
  <rect x="200" y="0" width="100" height="32" fill="#00F0FF" opacity="0.13"/>
  <line x1="200" y1="30" x2="300" y2="30" stroke="#00F0FF" stroke-width="2"/>
  <text x="250" y="20" font-family="Inter, sans-serif" font-size="11" fill="#00F0FF" text-anchor="middle">Modulation</text>
  
  <!-- Header row -->
  <rect x="19" y="51" width="1162" height="40" rx="8" fill="#25253D" opacity="0.45"/>
  <rect x="16" y="48" width="1162" height="40" rx="8" fill="#050510" opacity="0.65"/>
  <rect x="16" y="48" width="1162" height="40" rx="8" fill="#1A1A2E"/>
  <text x="24" y="61" font-family="Inter, sans-serif" font-size="10" font-weight="bold" fill="#8888AA">MODULATION MATRIX</text>
  <text x="200" y="73" font-family="Inter, sans-serif" font-size="9" fill="#8888AA">SOURCE</text>
  <text x="450" y="73" font-family="Inter, sans-serif" font-size="9" fill="#8888AA">TARGET</text>
  <text x="700" y="73" font-family="Inter, sans-serif" font-size="9" fill="#8888AA">AMOUNT</text>
  
  <!-- Dynamic rows (3 shown) -->
  <rect x="19" y="99" width="1162" height="70" rx="8" fill="#25253D" opacity="0.45"/>
  <rect x="16" y="96" width="1162" height="70" rx="8" fill="#050510" opacity="0.65"/>
  <rect x="16" y="96" width="1162" height="70" rx="8" fill="#1A1A2E"/>
  
  <rect x="19" y="177" width="1162" height="70" rx="8" fill="#25253D" opacity="0.45"/>
  <rect x="16" y="174" width="1162" height="70" rx="8" fill="#050510" opacity="0.65"/>
  <rect x="16" y="174" width="1162" height="70" rx="8" fill="#1A1A2E"/>
  
  <rect x="19" y="255" width="1162" height="70" rx="8" fill="#25253D" opacity="0.45"/>
  <rect x="16" y="252" width="1162" height="70" rx="8" fill="#050510" opacity="0.65"/>
  <rect x="16" y="252" width="1162" height="70" rx="8" fill="#1A1A2E"/>
  
  <rect x="19" y="333" width="1162" height="70" rx="8" fill="#25253D" opacity="0.45"/>
  <rect x="16" y="330" width="1162" height="70" rx="8" fill="#050510" opacity="0.65"/>
  <rect x="16" y="330" width="1162" height="70" rx="8" fill="#1A1A2E"/>
  
  <rect x="19" y="411" width="1162" height="70" rx="8" fill="#25253D" opacity="0.45"/>
  <rect x="16" y="408" width="1162" height="70" rx="8" fill="#050510" opacity="0.65"/>
  <rect x="16" y="408" width="1162" height="70" rx="8" fill="#1A1A2E"/>
</svg>